<?xml version="1.0" encoding="UTF-8"?>
<svg version="1.1" xmlns="http://www.w3.org/2000/svg" width="4688" height="1240">
<path d="M0 0 C0.84839447 0.00215515 1.69678894 0.0043103 2.57089233 0.00653076 C32.1586086 0.12652267 60.15210732 5.3134971 87.9765625 15.48046875 C88.81453369 15.78202881 89.65250488 16.08358887 90.51586914 16.39428711 C92.875 17.3125 92.875 17.3125 94.95092773 18.37329102 C97.96826143 19.8437947 99.84226275 20.58769774 103.15722656 19.7043457 C105.75276612 18.55318262 108.2058167 17.25430666 110.6875 15.875 C146.01338775 -2.32460283 187.75377024 -4.6775243 225.57714844 6.82739258 C231.79721824 8.82319271 237.77648266 11.23769256 243.67651367 14.04003906 C247.4087468 15.79650215 250.73200828 17.09870545 254.875 17.3125 C256.97830643 16.40206126 256.97830643 16.40206126 258.8125 14.8125 C276.41511278 2.15510285 297.86309933 -2.35549022 319.22363281 0.64208984 C323.9086272 1.49950857 328.36287521 2.79678624 332.875 4.3125 C333.89335938 4.65152344 334.91171875 4.99054688 335.9609375 5.33984375 C350.71960653 10.89907431 362.81980605 20.29085747 373.875 31.3125 C374.79345703 32.22708984 374.79345703 32.22708984 375.73046875 33.16015625 C376.10816406 33.54042969 376.48585938 33.92070312 376.875 34.3125 C377.37128906 33.62285156 377.86757813 32.93320312 378.37890625 32.22265625 C380.53236913 29.24376737 382.70229496 26.27737715 384.875 23.3125 C385.73544922 22.11560547 385.73544922 22.11560547 386.61328125 20.89453125 C393.4764704 11.63987285 402.14825473 2.62810731 413.875 0.3125 C426.00530459 -0.69014035 434.46190611 1.70370055 443.796875 9.48828125 C444.82554687 10.39126953 444.82554687 10.39126953 445.875 11.3125 C446.74898437 12.04533203 446.74898437 12.04533203 447.640625 12.79296875 C486.72505326 48.31596547 494.31751717 120.39180017 500.125 170.0625 C500.27606201 171.33625488 500.42712402 172.61000977 500.58276367 173.92236328 C503.33318223 198.9382965 504.25843289 223.97181006 504.1875 249.125 C504.18557156 250.49787382 504.18373154 251.87074777 504.18197632 253.24362183 C504.054575 322.02609222 498.68545862 401.02234765 464.875 462.3125 C463.99714844 463.93865234 463.99714844 463.93865234 463.1015625 465.59765625 C455.74222964 478.76786505 445.57896724 492.731978 431.0703125 498.41015625 C422.26238025 500.89748186 413.87596299 500.2983508 405.625 496.5 C392.5463599 489.11476116 384.85121689 477.60852488 376.875 465.3125 C376.17117188 466.06273437 375.46734375 466.81296875 374.7421875 467.5859375 C357.04147974 486.09274382 335.03719299 498.99820494 308.9621582 499.78051758 C298.30668534 499.88871593 288.9418598 499.01176776 278.875 495.3125 C277.84632813 494.95027344 276.81765625 494.58804687 275.7578125 494.21484375 C271.40199617 492.54605697 267.36410489 490.68710712 263.453125 488.14453125 C262.58905029 487.58330566 262.58905029 487.58330566 261.70751953 487.01074219 C260.08214186 485.92963597 258.48164779 484.81139238 256.8828125 483.69140625 C253.98330377 482.00991747 253.98330377 482.00991747 251.06640625 482.8515625 C249.48666016 483.57472656 249.48666016 483.57472656 247.875 484.3125 C246.44586839 484.9068313 245.0146952 485.49626607 243.58203125 486.08203125 C242.79642822 486.41122559 242.0108252 486.74041992 241.20141602 487.07958984 C233.5609075 490.25688978 225.94572353 493.08352649 217.9375 495.1875 C217.21860596 495.37803955 216.49971191 495.5685791 215.7590332 495.76489258 C203.60131316 498.80123269 191.60347837 499.68790251 179.125 499.625 C178.37387939 499.62317719 177.62275879 499.62135437 176.84887695 499.61947632 C165.89320822 499.57469798 155.52449547 499.0896555 144.875 496.3125 C143.41809678 495.96820778 141.96105928 495.62448343 140.50390625 495.28125 C128.4087535 492.29378359 116.5687799 487.82332019 105.796875 481.5078125 C99.07029787 478.75603095 92.2956851 482.52350403 85.9375 485 C62.57977339 493.77395835 37.33098569 499.38062384 12.30078125 499.515625 C11.42261749 499.52268463 10.54445374 499.52974426 9.63967896 499.53701782 C-27.00648387 499.76473926 -27.00648387 499.76473926 -44.125 496.3125 C-45.65036377 496.01448486 -45.65036377 496.01448486 -47.20654297 495.71044922 C-85.44783905 488.0598977 -121.40904276 472.52036097 -152.125 448.3125 C-153.11757813 447.53132813 -154.11015625 446.75015625 -155.1328125 445.9453125 C-170.10378423 433.89347175 -184.44349357 420.6250253 -196.125 405.3125 C-196.54313965 404.77077148 -196.9612793 404.22904297 -197.39208984 403.67089844 C-205.07328226 393.67778199 -211.81729412 383.21957475 -218.125 372.3125 C-218.72441406 371.28068604 -218.72441406 371.28068604 -219.3359375 370.22802734 C-233.66735934 345.25023467 -242.85291078 316.73352219 -247.125 288.3125 C-247.30232666 287.18062256 -247.47965332 286.04874512 -247.66235352 284.88256836 C-249.28388383 273.49866064 -249.48324854 262.23630829 -249.4375 250.75 C-249.43534485 249.77661682 -249.4331897 248.80323364 -249.43096924 247.800354 C-249.37995545 233.44306748 -248.98819835 219.42526385 -246.125 205.3125 C-245.92632324 204.29704102 -245.72764648 203.28158203 -245.52294922 202.23535156 C-237.42374536 161.7453991 -220.13919172 124.39508741 -194.125 92.3125 C-193.62355469 91.69391113 -193.12210937 91.07532227 -192.60546875 90.43798828 C-181.99852192 77.47666308 -170.38010317 65.57815437 -157.125 55.3125 C-156.14402344 54.52617188 -155.16304688 53.73984375 -154.15234375 52.9296875 C-123.20532701 28.29848768 -86.19210084 11.6711619 -47.4375 4.0625 C-46.66760742 3.91119629 -45.89771484 3.75989258 -45.10449219 3.60400391 C-30.13674432 0.87052127 -15.19227629 -0.07014446 0 0 Z " fill="#674BFD" transform="translate(546.125,463.6875)"/>
<path d="M0 0 C1.44632813 1.24716797 1.44632813 1.24716797 2.921875 2.51953125 C12.79745902 11.19473323 20.80455433 20.89689353 28 31.875 C28.70394897 32.94548584 28.70394897 32.94548584 29.42211914 34.03759766 C31.90444133 37.92515427 33.7611584 41.50919921 35 46 C35.66 46 36.32 46 37 46 C37.25007813 45.28714844 37.50015625 44.57429687 37.7578125 43.83984375 C51.26403227 12.96241678 88.08971358 -11.37262774 118.15551758 -23.18139648 C163.90148467 -40.38771836 218.75189523 -41.59349794 264 -22 C275.33113325 -16.76072108 286.32069221 -10.94391412 296 -3 C297.02996094 -2.18144531 298.05992187 -1.36289062 299.12109375 -0.51953125 C335.86562106 29.17884634 353.71561135 74.69169391 359.1875 120.625 C361.06868332 139.09132045 361.14335673 157.53029802 361.11606562 176.07540166 C361.11168882 179.8167522 361.1132126 183.55810136 361.1139679 187.29945374 C361.11448861 193.75924791 361.11138948 200.21903187 361.10573006 206.67882347 C361.09755318 216.01824158 361.09499354 225.35765482 361.09374207 234.69707612 C361.0915612 249.8549383 361.08492745 265.01279506 361.07543945 280.1706543 C361.06624025 294.88256809 361.05918321 309.5944804 361.05493164 324.30639648 C361.05466364 325.22466046 361.05439565 326.14292443 361.05411953 327.08901459 C361.05203973 334.27197279 361.05008294 341.45493102 361.04816496 348.63788927 C361.03875574 383.75859783 361.01863167 418.87929278 361 454 C314.14 454 267.28 454 219 454 C218.95101562 434.20128906 218.90203125 414.40257812 218.8515625 394.00390625 C218.81617525 381.4576781 218.7803067 368.91145409 218.7421875 356.36523438 C218.72218174 349.77238 218.70229766 343.17952528 218.68261719 336.58666992 C218.68014575 335.76044866 218.67767431 334.9342274 218.67512798 334.08296913 C218.63549012 320.77249018 218.60271202 307.46200282 218.57250018 294.15149952 C218.54130337 280.47485225 218.5026593 266.79824039 218.45720994 253.12163299 C218.42943341 244.69347213 218.40735386 236.26533694 218.39273749 227.83714282 C218.38213399 222.0448964 218.36424779 216.25269991 218.34083296 210.46049125 C218.32756547 207.12678987 218.31840439 203.79321831 218.31578636 200.45948219 C218.31488971 175.21889975 218.31488971 175.21889975 213.875 150.4375 C213.56067017 149.26707153 213.56067017 149.26707153 213.23999023 148.07299805 C209.99753056 136.73989511 204.6459479 126.01129574 197 117 C196.38511719 116.18789063 195.77023437 115.37578125 195.13671875 114.5390625 C185.5874996 103.19172713 169.52471081 96.43233396 155 95 C132.57893831 93.44951804 111.86657396 96.81603798 94.296875 111.859375 C69.58203594 134.89293249 63.10718117 166.54973441 61.88320494 199.10666919 C61.69165606 206.83521814 61.68774418 214.56418464 61.68115234 222.29467773 C61.67182763 224.83991302 61.66165531 227.38514531 61.65071106 229.93037415 C61.62924383 235.35769686 61.61352515 240.78498471 61.60334396 246.2123394 C61.58861419 254.05889021 61.56303996 261.9053779 61.53501268 269.75189114 C61.48980069 282.48944374 61.4530816 295.22700556 61.421875 307.96459961 C61.39158359 320.32106135 61.3571637 332.67750057 61.31738281 345.03393555 C61.31366055 346.19246331 61.31366055 346.19246331 61.30986309 347.37439567 C61.2904177 353.41676088 61.27073667 359.45912532 61.25098133 365.50148952 C61.15459368 395.00096544 61.07871515 424.50046139 61 454 C14.47 454 -32.06 454 -80 454 C-80.04898438 434.42945313 -80.09796875 414.85890625 -80.1484375 394.6953125 C-80.18382661 382.29036035 -80.21969642 369.88541238 -80.2578125 357.48046875 C-80.27781798 350.96142623 -80.29770202 344.44238335 -80.31738281 337.92333984 C-80.31985425 337.10637914 -80.32232569 336.28941843 -80.32487202 335.44770133 C-80.36449989 322.28983476 -80.39728237 309.1319597 -80.42749982 295.97406854 C-80.45870682 282.4522279 -80.49735511 268.930423 -80.54279006 255.40862262 C-80.5705538 247.07719952 -80.59263877 238.7458023 -80.60726251 230.41434561 C-80.61787359 224.68703491 -80.63576747 218.95977458 -80.65916704 213.232502 C-80.67242239 209.93717038 -80.68159284 206.64192091 -80.68421364 203.34656143 C-80.71208832 173.6010826 -81.99656092 142.5044346 -101 118 C-101.73992188 117.27167969 -102.47984375 116.54335938 -103.2421875 115.79296875 C-105 114 -105 114 -105 112 C-105.58523438 111.72800781 -106.17046875 111.45601562 -106.7734375 111.17578125 C-108.96149162 110.02033513 -110.70278698 108.73753986 -112.625 107.1875 C-129.0672082 94.81067295 -149.46455758 92.83736646 -169.41113281 95.29736328 C-183.69088983 97.66246793 -196.30052263 104.38205825 -207 114 C-207.61101563 114.51820313 -208.22203125 115.03640625 -208.8515625 115.5703125 C-223.9595662 129.29858983 -231.33405511 151.42579472 -234.6875 170.9375 C-234.86671997 171.97342285 -234.86671997 171.97342285 -235.04956055 173.03027344 C-237.49024489 188.39191597 -237.16839523 203.95276342 -237.20532227 219.45654297 C-237.21491507 222.02015333 -237.22492594 224.58376215 -237.23532104 227.14736938 C-237.25666861 232.64196119 -237.27514148 238.13655035 -237.29092598 243.63116074 C-237.31375208 251.57519591 -237.34187632 259.51920558 -237.37124526 267.46321894 C-237.41876623 280.35551354 -237.46207177 293.24781865 -237.50268555 306.14013672 C-237.54211975 318.65511898 -237.58357548 331.1700919 -237.62768555 343.68505859 C-237.63043505 344.46585742 -237.63318456 345.24665624 -237.63601738 346.05111563 C-237.65753972 352.15853818 -237.67917836 358.26596032 -237.70085371 364.37338233 C-237.80685274 394.24890262 -237.90271921 424.12444759 -238 454 C-284.53 454 -331.06 454 -379 454 C-379 296.59 -379 139.18 -379 -23 C-332.47 -23 -285.94 -23 -238 -23 C-237.67 -4.19 -237.34 14.62 -237 34 C-234.36 30.04 -231.72 26.08 -229 22 C-203.95912547 -10.17617749 -168.86437164 -29.09742831 -128.53125 -34.47265625 C-83.10033777 -39.95868958 -35.15814163 -30.67831391 0 0 Z " fill="#684AFE" transform="translate(3785,496)"/>
<path d="M0 0 C46.2 0 92.4 0 140 0 C140 223.08 140 446.16 140 676 C93.8 676 47.6 676 0 676 C-0.33 656.2 -0.66 636.4 -1 616 C-3.97 619.63 -6.94 623.26 -10 627 C-16.76051699 634.89030689 -23.74295095 641.65914377 -32 648 C-33.29744141 649.05574219 -33.29744141 649.05574219 -34.62109375 650.1328125 C-49.68479352 662.05557062 -66.91099009 670.71532027 -85 677 C-85.80759766 677.28069336 -86.61519531 677.56138672 -87.44726562 677.85058594 C-141.02469001 696.03093498 -200.52816644 690.29863493 -251.14746094 666.04394531 C-265.4275219 658.96480497 -278.72198656 650.14826916 -291 640 C-291.58120605 639.52030762 -292.16241211 639.04061523 -292.76123047 638.54638672 C-303.00651328 630.03555232 -312.42456665 621.23505838 -320.7578125 610.796875 C-322.20395838 608.99297178 -323.67638093 607.20967676 -325.1796875 605.453125 C-360.45800882 564.02306793 -379.93725795 504.62770449 -380.203125 450.48828125 C-380.21013931 449.52521057 -380.21715363 448.56213989 -380.22438049 447.56988525 C-380.24176645 444.48404192 -380.24823155 441.39839049 -380.25 438.3125 C-380.25067474 437.25787567 -380.25134949 436.20325134 -380.25204468 435.1166687 C-380.23651127 419.85284147 -379.86755983 405.03388958 -377 390 C-376.82307617 389.02208496 -376.64615234 388.04416992 -376.46386719 387.03662109 C-366.81376111 334.34437521 -343.77024427 288.85775721 -307 250 C-306.36191406 249.319375 -305.72382813 248.63875 -305.06640625 247.9375 C-300.11910555 242.81223884 -294.58649661 238.40530916 -289 234 C-288.071875 233.26652344 -287.14375 232.53304687 -286.1875 231.77734375 C-239.32914777 195.67858598 -181.73730929 182.09748408 -123.30444336 188.89306641 C-93.53373747 192.76848017 -62.15759002 202.74376412 -38 221 C-37.47212891 221.38559082 -36.94425781 221.77118164 -36.40039062 222.16845703 C-29.16771881 227.45979317 -22.50533324 233.20626673 -16.125 239.5 C-15.53098389 240.08015869 -14.93696777 240.66031738 -14.32495117 241.25805664 C-9.11537554 246.5227217 -5.49407065 251.82065285 -1 258 C-0.67 172.86 -0.34 87.72 0 0 Z M-209.66015625 355.83984375 C-230.07853839 379.35096383 -241.96188344 411.7324826 -240 443 C-237.39761198 479.47861258 -222.27814215 509.70641598 -195 534 C-170.54385817 554.39801119 -138.06812235 563.26667102 -106.61425781 560.81396484 C-77.5834298 557.93666639 -53.11853103 545.91274215 -32 526 C-31.26136719 525.33742188 -30.52273438 524.67484375 -29.76171875 523.9921875 C-12.9052128 508.24348035 -3.64486541 486.93333242 2 465 C2.25652344 464.00613281 2.51304687 463.01226563 2.77734375 461.98828125 C9.41927984 431.10570251 2.45895456 397.1961391 -14.3125 370.6875 C-30.69525945 345.88794257 -54.19466103 327.70722349 -82.75 319.125 C-83.38599121 318.93381592 -84.02198242 318.74263184 -84.67724609 318.5456543 C-95.36935119 315.56932027 -106.188153 314.63141763 -117.25 314.6875 C-118.42876709 314.69313965 -119.60753418 314.6987793 -120.82202148 314.70458984 C-155.65110962 315.18643874 -185.9955732 330.57677198 -209.66015625 355.83984375 Z " fill="#684AFD" transform="translate(2478,274)"/>
<path d="M0 0 C0.56203125 0.42071777 1.1240625 0.84143555 1.703125 1.27490234 C54.35242408 40.71740934 87.49527481 99.18138413 97.10058594 163.99047852 C97.426832 166.32452611 97.72198595 168.65972772 98 171 C98.09571289 171.79623779 98.19142578 172.59247559 98.29003906 173.4128418 C99.21020008 182.11067207 99.24346215 190.82594032 99.25 199.5625 C99.25101212 200.78395721 99.25101212 200.78395721 99.25204468 202.03009033 C99.20151028 240.65442834 91.12628733 278.23594662 74 313 C73.66033203 313.69706055 73.32066406 314.39412109 72.97070312 315.11230469 C62.22723105 336.92935551 47.82199297 356.49496104 31 374 C30.43265137 374.59458008 29.86530273 375.18916016 29.28076172 375.80175781 C20.74801684 384.69930679 11.92923769 392.69744094 2 400 C1.14390137 400.63929443 1.14390137 400.63929443 0.27050781 401.29150391 C-8.47238527 407.80799189 -17.53951241 413.58579021 -27 419 C-28.12277344 419.65613281 -29.24554687 420.31226563 -30.40234375 420.98828125 C-69.2863384 442.81405552 -114.80572016 452.2155907 -159.0625 452.25 C-160.24327621 452.25101212 -160.24327621 452.25101212 -161.44790649 452.25204468 C-215.73738902 452.17874624 -270.667428 437.01796867 -315 405 C-316.01835938 404.27425781 -317.03671875 403.54851562 -318.0859375 402.80078125 C-337.31893756 388.74201349 -354.92953958 372.26306437 -369 353 C-369.85806152 351.84894983 -370.71613451 350.69790823 -371.57421875 349.546875 C-377.61297189 341.35413506 -382.94713163 332.8290998 -388 324 C-388.65613281 322.87722656 -389.31226563 321.75445313 -389.98828125 320.59765625 C-421.89055735 263.76173751 -426.78796084 192.90009644 -409.875 130.6875 C-396.96342897 85.20267539 -371.20928367 42.73292593 -335 12 C-334.40276123 11.48590576 -333.80552246 10.97181152 -333.19018555 10.44213867 C-251.49241466 -59.43466523 -130.10146837 -68.7613177 0 0 Z M-243 113 C-243.67675781 113.61230469 -244.35351562 114.22460938 -245.05078125 114.85546875 C-266.49994996 135.01510828 -278.14685949 165.87019361 -279.27734375 194.859375 C-279.55647211 206.84765315 -278.92734503 218.35457381 -276 230 C-275.75854248 230.97211426 -275.75854248 230.97211426 -275.51220703 231.96386719 C-267.52106857 262.86907703 -248.15042092 289.78618841 -220.74584961 306.30249023 C-192.8108018 322.46348769 -160.95251116 327.33284369 -129.68652344 319.4140625 C-98.45546238 310.77653473 -72.38046984 289.79173832 -56 262 C-40.87461126 234.47744684 -35.77776307 200.54617335 -44 170 C-44.18804199 169.29294922 -44.37608398 168.58589844 -44.56982422 167.85742188 C-52.75537759 138.29305249 -72.23560658 110.60701189 -99 95 C-147.48297476 68.37410402 -202.79453317 75.08429175 -243 113 Z " fill="#684AFD" transform="translate(1970,511)"/>
<path d="M0 0 C46.86 0 93.72 0 142 0 C142.03738281 19.85929687 142.07476563 39.71859375 142.11328125 60.1796875 C142.14355995 72.76693367 142.17456794 85.35417172 142.20898438 97.94140625 C142.22703229 104.55615175 142.24489592 111.17089771 142.26245117 117.78564453 C142.2657627 119.0290792 142.2657627 119.0290792 142.26914114 120.29763377 C142.30443167 133.64946382 142.32933478 147.00129381 142.35034702 160.35315309 C142.37217301 174.07388767 142.40528742 187.79456216 142.44870156 201.51524556 C142.47510167 209.96952096 142.49288254 218.42372162 142.49934604 226.87803616 C142.5046358 232.68946454 142.52097159 238.50079917 142.54566566 244.31217717 C142.55955922 247.65618334 142.56724966 250.99988129 142.56500816 254.34393692 C142.55706444 271.67472738 142.86176678 288.79464824 148.75 305.3125 C149.13406006 306.41948242 149.13406006 306.41948242 149.52587891 307.54882812 C156.56563948 327.11927764 169.11723382 342.83794777 188 352 C211.51648617 361.5275796 236.85661837 361.55662409 260.546875 352.578125 C281.60850062 342.95267619 296.31064874 325.6751102 304.50390625 304.203125 C309.57541218 289.60929899 312.14361059 275.14965487 312.15821838 259.74975586 C312.16562535 258.07953873 312.16562535 258.07953873 312.17318195 256.37557983 C312.18850459 252.65533592 312.19690338 248.9351092 312.20532227 245.21484375 C312.2149049 242.54374444 312.22487251 239.87264914 312.23532104 237.20155334 C312.25702877 231.45639761 312.27519397 225.71123954 312.29092598 219.96606445 C312.31367675 211.65959363 312.34181223 203.35314785 312.37124526 195.04669833 C312.41885749 181.56874096 312.46213884 168.09077331 312.50268555 154.61279297 C312.54207294 141.52326661 312.58351803 128.43374941 312.62768555 115.34423828 C312.63180981 114.12083927 312.63180981 114.12083927 312.63601738 112.87272513 C312.65753761 106.49382687 312.67917686 100.11492902 312.70085371 93.73603129 C312.80700147 62.49070602 312.902772 31.24535676 313 0 C359.86 0 406.72 0 455 0 C455 157.41 455 314.82 455 477 C408.14 477 361.28 477 313 477 C312.505 449.28 312.505 449.28 312 421 C309.03 424.96 306.06 428.92 303 433 C300.04871286 436.41506083 297.09771867 439.72790644 294 443 C293.18015625 443.88429688 292.3603125 444.76859375 291.515625 445.6796875 C268.91645047 469.28178398 238.74239274 482.17942004 207 488 C206.30084473 488.13132324 205.60168945 488.26264648 204.88134766 488.39794922 C160.3048156 496.33379625 110.75455702 486.57201856 73.22265625 461.2578125 C51.53059604 446.06022365 35.11274137 426.40637192 23 403 C22.48010498 402.00709961 22.48010498 402.00709961 21.94970703 400.99414062 C3.2832752 364.90629026 -0.52213199 324.31270486 -0.34819686 284.31972945 C-0.33497128 280.48581436 -0.33964421 276.65190945 -0.34190369 272.81797791 C-0.34346007 266.20987047 -0.33422484 259.6018534 -0.31719017 252.99376869 C-0.29257871 243.44016158 -0.28497256 233.88659719 -0.2812262 224.33296182 C-0.27469598 208.82457036 -0.25482908 193.31622683 -0.22631836 177.80786133 C-0.19868818 162.76261629 -0.17753323 147.71738445 -0.16479492 132.67211914 C-0.16399093 131.73185912 -0.16318694 130.7915991 -0.16235858 129.82284635 C-0.15611858 122.46699149 -0.15024841 115.11113635 -0.14449489 107.75528109 C-0.11630631 71.83681004 -0.05592517 35.91845928 0 0 Z " fill="#674AFD" transform="translate(2886,473)"/>
<path d="M0 0 C0.84839447 0.00215515 1.69678894 0.0043103 2.57089233 0.00653076 C36.24024116 0.14307559 68.98152981 6.66189689 99.875 20.3125 C99.875 20.9725 99.875 21.6325 99.875 22.3125 C97.85963651 23.70610242 95.84489264 24.98591179 93.75 26.25 C81.52906591 33.88281684 70.69880275 42.99991399 60.30322266 52.94726562 C59.02737424 54.16684585 57.73910438 55.3734009 56.44921875 56.578125 C14.14755389 97.15165791 -6.67500397 159.40634989 -13.125 216.3125 C-13.22071289 217.149021 -13.31642578 217.98554199 -13.41503906 218.84741211 C-14.41769962 228.99710414 -14.3686637 239.18580388 -14.375 249.375 C-14.37567474 250.35126343 -14.37634949 251.32752686 -14.37704468 252.33337402 C-14.3504848 276.58874877 -11.73245853 299.68348048 -6.125 323.3125 C-5.82722656 324.5799707 -5.82722656 324.5799707 -5.5234375 325.87304688 C3.0344376 361.73054356 18.62264548 397.69679934 42.19921875 426.234375 C43.875 428.3125 43.875 428.3125 46.0625 431.625 C47.65377646 433.9844789 49.31387898 435.8071856 51.33374023 437.78881836 C53.1113069 439.54611181 54.84973436 441.33842728 56.58984375 443.1328125 C65.20461632 451.94683553 73.91243544 460.0524807 83.875 467.3125 C84.84824219 468.02277344 85.82148437 468.73304688 86.82421875 469.46484375 C94.56219242 475.35897799 94.56219242 475.35897799 103.875 476.3125 C107.59851779 474.82123268 111.09609737 472.96294715 114.625 471.0625 C115.64126465 470.52254395 116.6575293 469.98258789 117.70458984 469.42626953 C144.67927613 454.84615779 170.85825426 434.89263151 189.90234375 410.72265625 C191.78579823 408.42148514 193.66409848 406.3018498 195.875 404.3125 C196.535 404.3125 197.195 404.3125 197.875 404.3125 C198.22727661 405.1017688 198.22727661 405.1017688 198.58666992 405.90698242 C206.6262811 423.7490239 215.76700322 441.60331935 228.875 456.3125 C229.59042969 457.13492187 230.30585937 457.95734375 231.04296875 458.8046875 C234.76618543 463.02134253 238.59604971 467.13773154 242.5 471.1875 C243.17289063 471.88617187 243.84578125 472.58484375 244.5390625 473.3046875 C247.460321 475.815602 250.48695492 477.48311973 253.875 479.3125 C276.61035652 466.17444562 296.5738691 449.9790185 312.875 429.3125 C313.65617188 428.34828125 314.43734375 427.3840625 315.2421875 426.390625 C327.79472564 410.58966645 339.83317662 392.31785126 346.875 373.3125 C347.535 373.3125 348.195 373.3125 348.875 373.3125 C348.98457031 373.95872314 349.09414063 374.60494629 349.20703125 375.27075195 C354.24109482 404.39823256 362.26229359 432.95889464 375.72265625 459.37890625 C376.875 462.3125 376.875 462.3125 376.8515625 464.39453125 C368.72490107 480.35529429 346.04914464 491.08739149 330.08203125 496.6953125 C313.60873541 501.57755355 294.99149082 501.23482494 278.875 495.3125 C277.84632813 494.95027344 276.81765625 494.58804687 275.7578125 494.21484375 C271.40199617 492.54605697 267.36410489 490.68710712 263.453125 488.14453125 C262.58905029 487.58330566 262.58905029 487.58330566 261.70751953 487.01074219 C260.08214186 485.92963597 258.48164779 484.81139238 256.8828125 483.69140625 C253.98330377 482.00991747 253.98330377 482.00991747 251.06640625 482.8515625 C249.48666016 483.57472656 249.48666016 483.57472656 247.875 484.3125 C246.44586839 484.9068313 245.0146952 485.49626607 243.58203125 486.08203125 C242.79642822 486.41122559 242.0108252 486.74041992 241.20141602 487.07958984 C233.5609075 490.25688978 225.94572353 493.08352649 217.9375 495.1875 C217.21860596 495.37803955 216.49971191 495.5685791 215.7590332 495.76489258 C203.60131316 498.80123269 191.60347837 499.68790251 179.125 499.625 C178.37387939 499.62317719 177.62275879 499.62135437 176.84887695 499.61947632 C165.89320822 499.57469798 155.52449547 499.0896555 144.875 496.3125 C143.41809678 495.96820778 141.96105928 495.62448343 140.50390625 495.28125 C128.4087535 492.29378359 116.5687799 487.82332019 105.796875 481.5078125 C99.07029787 478.75603095 92.2956851 482.52350403 85.9375 485 C62.57977339 493.77395835 37.33098569 499.38062384 12.30078125 499.515625 C11.42261749 499.52268463 10.54445374 499.52974426 9.63967896 499.53701782 C-27.00648387 499.76473926 -27.00648387 499.76473926 -44.125 496.3125 C-45.65036377 496.01448486 -45.65036377 496.01448486 -47.20654297 495.71044922 C-85.44783905 488.0598977 -121.40904276 472.52036097 -152.125 448.3125 C-153.11757813 447.53132813 -154.11015625 446.75015625 -155.1328125 445.9453125 C-170.10378423 433.89347175 -184.44349357 420.6250253 -196.125 405.3125 C-196.54313965 404.77077148 -196.9612793 404.22904297 -197.39208984 403.67089844 C-205.07328226 393.67778199 -211.81729412 383.21957475 -218.125 372.3125 C-218.72441406 371.28068604 -218.72441406 371.28068604 -219.3359375 370.22802734 C-233.66735934 345.25023467 -242.85291078 316.73352219 -247.125 288.3125 C-247.30232666 287.18062256 -247.47965332 286.04874512 -247.66235352 284.88256836 C-249.28388383 273.49866064 -249.48324854 262.23630829 -249.4375 250.75 C-249.43534485 249.77661682 -249.4331897 248.80323364 -249.43096924 247.800354 C-249.37995545 233.44306748 -248.98819835 219.42526385 -246.125 205.3125 C-245.92632324 204.29704102 -245.72764648 203.28158203 -245.52294922 202.23535156 C-237.42374536 161.7453991 -220.13919172 124.39508741 -194.125 92.3125 C-193.62355469 91.69391113 -193.12210937 91.07532227 -192.60546875 90.43798828 C-181.99852192 77.47666308 -170.38010317 65.57815437 -157.125 55.3125 C-156.14402344 54.52617188 -155.16304688 53.73984375 -154.15234375 52.9296875 C-123.20532701 28.29848768 -86.19210084 11.6711619 -47.4375 4.0625 C-46.66760742 3.91119629 -45.89771484 3.75989258 -45.10449219 3.60400391 C-30.13674432 0.87052127 -15.19227629 -0.07014446 0 0 Z " fill="#15CABB" transform="translate(546.125,463.6875)"/>
<path d="M0 0 C0 43.89 0 87.78 0 133 C-4.06973731 131.37210508 -7.1102945 129.77124899 -10.75 127.4375 C-27.49344385 116.97707818 -44.68313807 109.37231422 -63.75 104.1875 C-64.81033447 103.89504395 -64.81033447 103.89504395 -65.89208984 103.59667969 C-78.17647549 100.43998508 -90.67467006 99.63270483 -103.3125 99.6875 C-103.98565247 99.68932281 -104.65880493 99.69114563 -105.35235596 99.69302368 C-116.16648806 99.74210761 -126.48723673 100.41264174 -137 103 C-137.67530762 103.1556543 -138.35061523 103.31130859 -139.04638672 103.47167969 C-170.08227987 110.79057 -197.48326487 129.74842959 -214.40625 156.78125 C-219.99472608 166.0638816 -223.8504183 175.65594235 -227 186 C-227.31710937 187.01320313 -227.63421875 188.02640625 -227.9609375 189.0703125 C-236.79530445 220.47167622 -231.65682901 255.14078366 -216.23217773 283.56298828 C-200.97644208 310.43723646 -174.68617352 330.06084415 -145.06591797 338.453125 C-134.59784355 341.22415864 -123.84930164 343.64813076 -113 344 C-111.07414062 344.07734375 -111.07414062 344.07734375 -109.109375 344.15625 C-70.96440695 345.19907448 -32.97377087 331.20467749 -1.984375 309.36328125 C0 308 0 308 1 308 C1 352.22 1 396.44 1 442 C-24.23218584 455.76301046 -50.5426111 465.44266617 -79 470 C-79.98226563 470.16081055 -80.96453125 470.32162109 -81.9765625 470.48730469 C-149.47188563 481.06069995 -222.33459892 465.99964194 -278 426 C-287.60604055 418.99195678 -296.4251665 411.22519706 -305 403 C-306.23556641 401.82630859 -306.23556641 401.82630859 -307.49609375 400.62890625 C-313.15329367 395.12857843 -318.16044011 389.22684724 -323 383 C-323.63010986 382.19248291 -323.63010986 382.19248291 -324.27294922 381.36865234 C-349.34693407 348.98723253 -365.567217 310.41001196 -372 270 C-372.23904053 268.59693604 -372.23904053 268.59693604 -372.48291016 267.16552734 C-377.3678086 237.56938158 -377.49154998 204.48562685 -372 175 C-371.80132324 173.92621094 -371.60264648 172.85242188 -371.39794922 171.74609375 C-366.86119791 148.06663073 -359.57938754 125.66003081 -349 104 C-348.68627441 103.34805664 -348.37254883 102.69611328 -348.04931641 102.02441406 C-340.20432388 85.89412721 -329.88287043 70.42492232 -318 57 C-317.34515625 56.236875 -316.6903125 55.47375 -316.015625 54.6875 C-304.81858881 41.89088721 -292.79429782 29.96669758 -279 20 C-278.37125977 19.54286621 -277.74251953 19.08573242 -277.09472656 18.61474609 C-199.20934184 -37.57981097 -84.38470934 -48.21983391 0 0 Z " fill="#684AFD" transform="translate(1529,490)"/>
<path d="M0 0 C0.60972656 0.34546875 1.21945312 0.6909375 1.84765625 1.046875 C2.60949219 1.45292969 3.37132812 1.85898437 4.15625 2.27734375 C5.06503906 2.77878906 5.97382812 3.28023438 6.91015625 3.796875 C8.73555257 4.66217337 10.56104564 5.52727205 12.38793945 6.3894043 C31.74198553 15.67271047 48.81751468 28.72074397 64.91015625 42.796875 C65.41546875 43.23757324 65.92078125 43.67827148 66.44140625 44.13232422 C74.31529017 51.04504066 81.59715424 58.4429044 88.5546875 66.27246094 C89.77648948 67.64654803 91.02908816 68.99310155 92.28515625 70.3359375 C94.44399441 73.60533183 94.4952558 74.9037126 93.91015625 78.796875 C92.70933132 82.5554109 91.25105433 86.19753948 89.78515625 89.859375 C75.05462508 128.08449898 66.78636184 170.97805668 66.7421875 211.96484375 C66.7388591 213.08337234 66.7355307 214.20190094 66.73210144 215.35432434 C66.72707508 217.70976354 66.72469177 220.06520974 66.72485352 222.4206543 C66.72268919 225.93095444 66.70454784 229.440928 66.68554688 232.95117188 C66.63239458 253.72196001 67.51997621 274.44805904 71.22265625 294.921875 C71.43921875 296.16340332 71.65578125 297.40493164 71.87890625 298.68408203 C72.53563918 302.39244032 73.21623824 306.09530799 73.91015625 309.796875 C74.22605713 311.48200195 74.22605713 311.48200195 74.54833984 313.20117188 C76.93045182 325.68440866 79.75384716 337.77675107 83.91015625 349.796875 C84.6705959 352.02603383 85.43101032 354.25520126 86.19140625 356.484375 C87.79145075 361.15170101 89.39770564 365.81675697 91.01953125 370.4765625 C91.35952148 371.45351074 91.69951172 372.43045898 92.04980469 373.43701172 C92.85058835 375.77257181 92.85058835 375.77257181 93.91015625 377.796875 C94.46974078 381.86972735 94.22600929 383.36850289 91.75 386.7265625 C90.79703093 387.7223935 89.82870615 388.70369602 88.84765625 389.671875 C87.827376 390.72714093 86.80784391 391.78313073 85.7890625 392.83984375 C85.29164551 393.34692871 84.79422852 393.85401367 84.28173828 394.37646484 C82.53831108 396.18195781 80.90780203 398.07019003 79.28515625 399.984375 C72.67270509 407.56832373 65.48173489 414.27854116 57.57080078 420.49121094 C56.39355478 421.41680806 55.22045726 422.34769262 54.05029297 423.28222656 C40.39251172 434.17221869 26.00323709 443.1644935 10.66015625 451.484375 C9.87398926 451.91903076 9.08782227 452.35368652 8.27783203 452.80151367 C4.04623732 455.03991291 0.80024428 456.67509489 -4.08984375 455.796875 C-6.50731434 454.57221625 -8.56544152 453.37780929 -10.77734375 451.859375 C-11.38674805 451.45332031 -11.99615234 451.04726563 -12.62402344 450.62890625 C-18.41121631 446.70825703 -23.81536181 442.38198696 -29.08984375 437.796875 C-29.89679688 437.10078125 -30.70375 436.4046875 -31.53515625 435.6875 C-36.58471175 431.23869548 -41.42554089 426.58488991 -46.21484375 421.859375 C-46.7960498 421.2912207 -47.37725586 420.72306641 -47.97607422 420.13769531 C-49.38716693 418.7295769 -50.74384846 417.26734321 -52.08984375 415.796875 C-52.08984375 415.136875 -52.08984375 414.476875 -52.08984375 413.796875 C-53.07984375 413.466875 -54.06984375 413.136875 -55.08984375 412.796875 C-56.4140625 411.3359375 -56.4140625 411.3359375 -57.77734375 409.421875 C-58.56431641 408.32746094 -58.56431641 408.32746094 -59.3671875 407.2109375 C-60.21990234 406.01597656 -60.21990234 406.01597656 -61.08984375 404.796875 C-61.98896484 403.60191406 -61.98896484 403.60191406 -62.90625 402.3828125 C-71.4738149 390.92477621 -78.6941974 378.82886708 -85.33984375 366.171875 C-85.82291992 365.2550293 -86.30599609 364.33818359 -86.80371094 363.39355469 C-103.29474696 331.48379504 -112.38020119 296.39155839 -116.08984375 260.796875 C-116.17203156 260.07017105 -116.25421936 259.3434671 -116.33889771 258.59474182 C-116.97104768 252.76353218 -117.26173125 247.00798533 -117.29296875 241.14453125 C-117.29998306 240.25506302 -117.30699738 239.36559479 -117.31422424 238.44917297 C-117.33165301 235.58585491 -117.33807923 232.72274421 -117.33984375 229.859375 C-117.34051849 228.87745178 -117.34119324 227.89552856 -117.34188843 226.8838501 C-117.32457501 210.99531265 -116.65364672 195.50735935 -114.08984375 179.796875 C-113.9182373 178.72421387 -113.74663086 177.65155273 -113.56982422 176.54638672 C-107.09867038 137.27417426 -93.48998233 98.87236234 -71.08984375 65.796875 C-70.69087891 65.20261719 -70.29191406 64.60835937 -69.88085938 63.99609375 C-55.29410653 42.43306781 -37.20773335 24.46004507 -16.33984375 8.984375 C-15.72568604 8.52780518 -15.11152832 8.07123535 -14.47875977 7.60083008 C-3.60051176 -0.34995628 -3.60051176 -0.34995628 0 0 Z " fill="#674BFD" transform="translate(648.08984375,485.203125)"/>
<path d="M0 0 C46.86 0 93.72 0 142 0 C142 157.41 142 314.82 142 477 C95.14 477 48.28 477 0 477 C0 319.59 0 162.18 0 0 Z " fill="#674AFD" transform="translate(2683,473)"/>
<path d="M0 0 C3.20039896 2.13008431 6.11245435 4.46525598 9 7 C9.58265625 7.48855469 10.1653125 7.97710937 10.765625 8.48046875 C49.85005326 44.00346547 57.44251717 116.07930017 63.25 165.75 C63.40106201 167.02375488 63.55212402 168.29750977 63.70776367 169.60986328 C66.45818223 194.6257965 67.38343289 219.65931006 67.3125 244.8125 C67.31057156 246.18537382 67.30873154 247.55824777 67.30697632 248.93112183 C67.179575 317.71359222 61.81045862 396.70984765 28 458 C27.12214844 459.62615234 27.12214844 459.62615234 26.2265625 461.28515625 C18.86722964 474.45536505 8.70396724 488.419478 -5.8046875 494.09765625 C-14.61261975 496.58498186 -22.99903701 495.9858508 -31.25 492.1875 C-41.36560102 486.48038726 -48.27130118 478.48522945 -54.75 469.0625 C-55.19311523 468.42376953 -55.63623047 467.78503906 -56.09277344 467.12695312 C-58.97697021 462.71527826 -58.97697021 462.71527826 -59.06640625 459.9375 C-57.44624267 456.99390609 -55.33457194 454.5024263 -53.1875 451.9375 C-16.85081025 406.94152335 -0.89473785 347.61506988 5 291 C5.10296387 290.06140137 5.20592773 289.12280273 5.31201172 288.15576172 C13.93739689 206.95723054 1.1750453 109.90808018 -52 41 C-52.71027344 40.1440625 -53.42054688 39.288125 -54.15234375 38.40625 C-54.80332031 37.6121875 -55.45429687 36.818125 -56.125 36 C-56.70507812 35.319375 -57.28515625 34.63875 -57.8828125 33.9375 C-59 32 -59 32 -58.859375 30.0625 C-53.70337129 17.6880911 -42.84255157 5.28515307 -31 -1 C-30.37996094 -1.33644531 -29.75992188 -1.67289062 -29.12109375 -2.01953125 C-19.78934576 -6.28602981 -8.73827427 -4.95995535 0 0 Z " fill="#17C6BC" transform="translate(983,468)"/>
<path d="M0 0 C15.82134638 15.36849925 26.78115765 35.14519567 36 55 C36.29712891 55.63824707 36.59425781 56.27649414 36.90039062 56.93408203 C45.10820764 74.74003802 51.24617248 92.98829678 56 112 C56.1865918 112.73976074 56.37318359 113.47952148 56.56542969 114.24169922 C78.53759785 202.81056092 72.56978387 307.10688865 25 396 C17.83855284 407.65706013 10.15263637 418.81400146 1 429 C-15.53365404 412.46634596 -21.73161642 375.58443395 -26.375 353.3125 C-26.62697144 352.12853638 -26.62697144 352.12853638 -26.8840332 350.9206543 C-28.97101478 340.26475863 -27.94050099 332.51684297 -23.9375 322.4375 C-16.52409745 302.78223842 -10.97622104 282.80943441 -8 262 C-7.85046875 260.97116699 -7.7009375 259.94233398 -7.546875 258.88232422 C-2.13079622 219.90173138 -3.62861508 180.21354274 -13 142 C-13.22558594 141.04641602 -13.45117188 140.09283203 -13.68359375 139.11035156 C-17.16243657 124.44319645 -21.22741301 109.54517398 -28 96 C-32.23659235 66.34385353 -13.81961907 25.75474464 0 0 Z " fill="#674BFD" transform="translate(923,499)"/>
<path d="M0 0 C15.86076117 13.66465577 25.66414468 31.26210535 29.3515625 51.875 C30.85920003 72.53067394 27.46750405 88.92584869 17.3515625 106.875 C16.89136719 107.71546875 16.43117188 108.5559375 15.95703125 109.421875 C9.26144325 120.50701766 -1.38905798 129.73813098 -12.6484375 135.875 C-13.44507812 136.33261719 -14.24171875 136.79023438 -15.0625 137.26171875 C-32.58264601 146.76368719 -54.99170551 148.98633749 -74.17236328 143.64086914 C-97.11773862 136.71012868 -114.9060068 122.65983994 -126.39453125 101.6875 C-136.46494865 81.19507956 -138.26049937 59.21941274 -131.5234375 37.375 C-126.94180933 24.04913529 -119.60621858 13.71799397 -109.6484375 3.875 C-108.91882812 3.13507813 -108.18921875 2.39515625 -107.4375 1.6328125 C-77.71113017 -26.76747391 -30.87320273 -24.7714193 0 0 Z " fill="#684AFD" transform="translate(2806.6484375,292.125)"/>
<path d="M0 0 C1.65 1.65 3.3 3.3 5 5 C5.33 -0.28 5.66 -5.56 6 -11 C20.85 -11 35.7 -11 51 -11 C51 39.49 51 89.98 51 142 C36.15 142 21.3 142 6 142 C5.67 136.39 5.34 130.78 5 125 C4.236875 126.010625 3.47375 127.02125 2.6875 128.0625 C-6.01961192 138.15622459 -20.83290854 144.7218116 -34 146 C-53.13074171 147.3602577 -70.45014482 143.60395973 -85.87890625 131.796875 C-88.36819251 129.62302502 -90.69464721 127.36688356 -93 125 C-93.68320312 124.34902344 -94.36640625 123.69804687 -95.0703125 123.02734375 C-111.09025517 106.72469621 -115.2795686 84.42143949 -115.3190918 62.46264648 C-115.22096615 53.00776513 -114.16651222 44.92004424 -111 36 C-110.43925781 34.39511719 -110.43925781 34.39511719 -109.8671875 32.7578125 C-102.47797975 13.5262983 -89.10628792 -0.83329597 -70.640625 -9.59375 C-46.83484581 -19.38942948 -19.95397142 -16.45972758 0 0 Z M-60.75 39.87890625 C-67.70378653 48.48421708 -70.91992078 59.01205739 -70 70 C-67.87764159 82.32047045 -62.04424824 91.59536649 -52 99 C-43.13480704 104.7063311 -32.9674955 106.16441307 -22.6875 104.375 C-12.85554411 101.94672765 -4.04337246 96.26453173 1.46484375 87.73046875 C6.91069492 78.21206801 9.68622057 68.77588572 7.31640625 57.84765625 C4.26309038 46.99001435 -0.64438082 38.53704788 -10 32 C-27.26324609 22.64314998 -47.27677658 25.41323557 -60.75 39.87890625 Z " fill="#674AFD" transform="translate(4261,292)"/>
<path d="M0 0 C3.73059183 3.52662649 6.74398072 7.19949452 9.5625 11.5 C9.98668213 12.14598145 10.41086426 12.79196289 10.84790039 13.45751953 C47.40926247 69.93915988 61.61100365 136.15794975 48.3125 202.5 C40.10966959 240.17970149 24.30167067 274.3759698 1 305 C-1.85611146 302.55948055 -2.87707633 300.20983328 -4.12109375 296.6953125 C-4.49717773 295.64359863 -4.87326172 294.59188477 -5.26074219 293.50830078 C-5.64907227 292.39181152 -6.03740234 291.27532227 -6.4375 290.125 C-7.04126465 288.41352783 -7.04126465 288.41352783 -7.65722656 286.66748047 C-10.28945648 279.16015481 -12.85865163 271.66377312 -15 264 C-15.19013672 263.34 -15.38027344 262.68 -15.57617188 262 C-19.10450535 249.68930376 -21.51627869 237.32586025 -23.5546875 224.68945312 C-23.95518237 222.27067488 -24.38896877 219.86217842 -24.84375 217.453125 C-28.90630461 195.62903465 -29.38277515 173.39101466 -29.3125 151.25 C-29.31100952 150.07677185 -29.30951904 148.9035437 -29.3079834 147.69476318 C-29.26682143 129.60837849 -28.62242943 111.91755646 -26 94 C-25.86609863 93.00758301 -25.73219727 92.01516602 -25.59423828 90.99267578 C-22.41318336 67.63794895 -16.71656288 44.43066217 -9.3125 22.0625 C-8.95647705 20.98637451 -8.6004541 19.91024902 -8.23364258 18.80151367 C-5.98162 12.24710408 -3.26553142 6.11218798 0 0 Z " fill="#321BB2" transform="translate(743,561)"/>
<path d="M0 0 C0.66 0 1.32 0 2 0 C2.10957031 0.64622314 2.21914063 1.29244629 2.33203125 1.95825195 C7.36609482 31.08573256 15.38729359 59.64639464 28.84765625 86.06640625 C30 89 30 89 29.9765625 91.08203125 C21.84990107 107.04279429 -0.82585536 117.77489149 -16.79296875 123.3828125 C-33.26626459 128.26505355 -51.88350918 127.92232494 -68 122 C-69.02867187 121.63777344 -70.05734375 121.27554688 -71.1171875 120.90234375 C-75.47300383 119.23355697 -79.51089511 117.37460712 -83.421875 114.83203125 C-83.9979248 114.45788086 -84.57397461 114.08373047 -85.16748047 113.69824219 C-86.79285814 112.61713597 -88.39335221 111.49889238 -89.9921875 110.37890625 C-92.89169623 108.69741747 -92.89169623 108.69741747 -95.80859375 109.5390625 C-96.86175781 110.02117187 -97.91492188 110.50328125 -99 111 C-100.42913161 111.5943313 -101.8603048 112.18376607 -103.29296875 112.76953125 C-104.07857178 113.09872559 -104.8641748 113.42791992 -105.67358398 113.76708984 C-113.3140925 116.94438978 -120.92927647 119.77102649 -128.9375 121.875 C-130.01584106 122.16080933 -130.01584106 122.16080933 -131.1159668 122.45239258 C-143.27368684 125.48873269 -155.27152163 126.37540251 -167.75 126.3125 C-168.50112061 126.31067719 -169.25224121 126.30885437 -170.02612305 126.30697632 C-180.98179178 126.26219798 -191.35050453 125.7771555 -202 123 C-203.45690322 122.65570778 -204.91394072 122.31198343 -206.37109375 121.96875 C-219.66259753 118.68578848 -231.82017588 113.16651473 -244 107 C-243.78100586 105.16210938 -243.78100586 105.16210938 -243 103 C-241.06079102 101.63476562 -241.06079102 101.63476562 -238.50390625 100.40625 C-237.56144043 99.93944824 -236.61897461 99.47264648 -235.64794922 98.99169922 C-234.12065186 98.25330811 -234.12065186 98.25330811 -232.5625 97.5 C-204.11239485 83.20654714 -176.75690932 62.51951668 -156.97265625 37.41015625 C-155.08920177 35.10898514 -153.21090152 32.9893498 -151 31 C-150.34 31 -149.68 31 -149 31 C-148.76514893 31.5261792 -148.53029785 32.0523584 -148.28833008 32.59448242 C-140.2487189 50.4365239 -131.10799678 68.29081935 -118 83 C-117.28457031 83.82242188 -116.56914063 84.64484375 -115.83203125 85.4921875 C-112.10881457 89.70884253 -108.27895029 93.82523154 -104.375 97.875 C-103.70210937 98.57367187 -103.02921875 99.27234375 -102.3359375 99.9921875 C-99.414679 102.503102 -96.38804508 104.17061973 -93 106 C-70.26464348 92.86194562 -50.3011309 76.6665185 -34 56 C-33.21882812 55.03578125 -32.43765625 54.0715625 -31.6328125 53.078125 C-19.08027436 37.27716645 -7.04182338 19.00535126 0 0 Z " fill="#21B6C5" transform="translate(893,837)"/>
<path d="M0 0 C15.18 0 30.36 0 46 0 C46 50.49 46 100.98 46 153 C30.82 153 15.64 153 0 153 C0 102.51 0 52.02 0 0 Z " fill="#674AFD" transform="translate(4342,281)"/>
<path d="M0 0 C-1.41088411 3.30653354 -3.05531369 5.1547817 -5.8125 7.4375 C-9.03283148 10.16551462 -12.05109678 12.97548388 -15 16 C-15.51715576 16.50176758 -16.03431152 17.00353516 -16.56713867 17.52050781 C-20.66963886 21.5202859 -24.32375364 25.66035525 -27.75 30.25 C-28.25660156 30.92603271 -28.76320313 31.60206543 -29.28515625 32.29858398 C-34.77201155 39.79450649 -39.34227434 47.79657685 -43.83837891 55.91308594 C-44.94316651 57.89789562 -46.07304798 59.86606589 -47.2109375 61.83203125 C-49.95301702 66.6875476 -51.9593066 71.81977829 -54 77 C-57.67670584 75.48947977 -59.71874462 73.3511385 -62.3125 70.375 C-63.10011719 69.47910156 -63.88773438 68.58320312 -64.69921875 67.66015625 C-66.09781376 66.04310497 -67.49628501 64.42594662 -68.89453125 62.80859375 C-75.12917524 55.61693894 -81.62611804 49.34901749 -89.05859375 43.3828125 C-91.01105201 41.80113981 -92.94133146 40.19166873 -94.84765625 38.5546875 C-102.49191793 31.99070507 -110.49502787 26.38149346 -119 21 C-119.61246582 20.60925293 -120.22493164 20.21850586 -120.85595703 19.81591797 C-130.52797026 13.68439162 -140.56003966 8.68967619 -151 4 C-151 3.34 -151 2.68 -151 2 C-106.04874819 -20.74218865 -44.67787572 -29.78525048 0 0 Z " fill="#1DBCC2" transform="translate(798,482)"/>
<path d="M0 0 C1.01835938 0.33902344 2.03671875 0.67804688 3.0859375 1.02734375 C17.84460653 6.58657431 29.94480605 15.97835747 41 27 C41.63292969 27.50660156 42.26585937 28.01320313 42.91796875 28.53515625 C44 30 44 30 43.8984375 32.265625 C43.02524773 34.92315908 41.91377113 37.32502458 40.62646484 39.80493164 C28.11151721 64.1117546 21.16745028 92.32362067 16 119 C15.01 119 14.02 119 13 119 C12.29037109 117.52853516 12.29037109 117.52853516 11.56640625 116.02734375 C1.25683491 94.88214858 -11.41312079 75.64151329 -27 58 C-28.12148438 56.69482422 -28.12148438 56.69482422 -29.265625 55.36328125 C-42.10770616 40.65032136 -57.42531441 28.40034612 -74.3918457 18.76513672 C-78.90606675 16.18786649 -78.90606675 16.18786649 -80 14 C-55.02211932 -2.10684941 -29.01700275 -9.74739671 0 0 Z " fill="#1EBAC3" transform="translate(879,468)"/>
<path d="M0 0 C11.89167395 17.83751092 15.78015154 42.39743348 20 63 C20.15742676 63.74668945 20.31485352 64.49337891 20.47705078 65.26269531 C24.21234222 83.008488 25.38922767 100.83558812 25.3125 118.9375 C25.31100952 119.81886627 25.30951904 120.70023254 25.3079834 121.60830688 C25.25991131 137.55586253 24.28385695 153.19938793 22 169 C21.86609863 169.95745117 21.73219727 170.91490234 21.59423828 171.90136719 C13.19935123 229.80064877 13.19935123 229.80064877 0 243 C-2.99213667 233.05201652 -4.13550559 223.01769557 -5.25268555 212.72412109 C-5.55671468 209.92820305 -5.87391703 207.13403785 -6.19335938 204.33984375 C-6.84433494 198.56453099 -7.43199172 192.78400207 -8 187 C-8.09683075 186.0433847 -8.1936615 185.08676941 -8.29342651 184.10116577 C-10.3639851 163.1148745 -10.43879996 142.12911902 -10.4375 121.0625 C-10.43841141 120.15279701 -10.43932281 119.24309402 -10.44026184 118.30582428 C-10.47199145 82.8701776 -8.40822076 48.30138555 -2.890625 13.2578125 C-2.71899841 12.16644989 -2.54737183 11.07508728 -2.37054443 9.95065308 C-2.12573334 8.43811447 -2.12573334 8.43811447 -1.87597656 6.89501953 C-1.73113831 5.9973587 -1.58630005 5.09969788 -1.43707275 4.17483521 C-1 2 -1 2 0 0 Z " fill="#321BB2" transform="translate(894,592)"/>
<path d="M0 0 C6.81109733 4.97975256 10.20389833 11.17646465 11.93359375 19.42578125 C12.60208668 26.62600721 10.577061 33.82921384 6.12109375 39.55078125 C0.10175642 45.99816035 -5.88668859 49.54492037 -14.75390625 49.98828125 C-22.89277123 49.71281197 -30.25416862 46.43713458 -35.87890625 40.55078125 C-41.07823869 32.66701087 -43.10711925 25.68669877 -41.48828125 16.28125 C-39.49448778 8.98345467 -34.96156605 3.47145326 -28.84765625 -0.90234375 C-19.88812497 -5.64955809 -8.64579859 -5.03983333 0 0 Z " fill="#684AFD" transform="translate(4379.87890625,214.44921875)"/>
<path d="M0 0 C0.66 0.33 1.32 0.66 2 1 C-4.6 7.6 -11.2 14.2 -18 21 C-18 15.49024931 -12.69527879 11.76941247 -9 8 C-6.39747571 5.58398995 -3.72631653 3.27424874 -1 1 C-0.67 0.67 -0.34 0.34 0 0 Z " fill="#6054F8" transform="translate(794,486)"/>
</svg>
