<svg width="568" height="133" viewBox="0 0 568 133" fill="none" xmlns="http://www.w3.org/2000/svg">
<path d="M207.15 79.64H224.055C243.03 79.64 254.875 70.555 254.875 53.535C254.875 36.4 243.03 27.43 224.055 27.43H190.245V110H207.15V79.64ZM207.15 65.265V41.805H223.135C233.025 41.805 238.085 46.06 238.085 53.535C238.085 60.895 233.025 65.265 223.135 65.265H207.15Z" fill="black"/>
<path d="M280.597 27.43H263.692V110H280.597V27.43Z" fill="black"/>
<path d="M295.025 27.43V110H352.065V95.395H311.7V74.925H345.51V60.435H311.7V42.035H352.065V27.43H295.025Z" fill="black"/>
<path d="M374.839 68.715C374.839 51.925 383.694 41 396.344 41C405.314 41 411.869 46.635 414.169 55.835L430.039 50.545C425.209 35.595 413.479 26.165 396.344 26.165C374.034 26.165 357.819 43.76 357.819 68.715C357.819 93.67 374.034 111.265 396.344 111.265C413.479 111.265 425.209 101.835 430.039 86.885L414.169 81.595C411.869 90.795 405.314 96.43 396.344 96.43C383.694 96.43 374.839 85.505 374.839 68.715Z" fill="black"/>
<path d="M439.112 27.43V110H496.152V95.395H455.787V74.925H489.597V60.435H455.787V42.035H496.152V27.43H439.112Z" fill="black"/>
<path d="M499.675 94.935C506.345 104.94 520.835 111.265 534.75 111.265C552.345 111.265 567.065 101.26 567.065 84.585C567.065 66.53 550.965 63.195 537.855 60.32C527.045 57.905 521.065 56.64 521.065 50.2C521.065 44.22 526.585 40.31 534.635 40.31C543.835 40.31 550.275 44.91 555.105 51.695L566.26 40.77C560.51 32.49 549.355 26.165 535.095 26.165C517.96 26.165 504.39 36.055 504.39 51.81C504.39 68.14 517.73 72.05 530.035 74.925C542.455 77.685 550.275 78.72 550.275 86.31C550.275 93.325 543.95 97.12 535.325 97.12C526.24 97.12 517.385 92.29 511.29 83.665L499.675 94.935Z" fill="black"/>
<path d="M66.5 28.0332C52.8369 28.0332 41.3905 38.1993 39.7089 51.5375L39.6707 51.9388V52.0152V52.0916C39.5751 52.684 39.5369 53.2764 39.5178 53.8879V91.3993C39.5178 98.8136 45.4608 104.852 52.856 104.967H53.1044C60.5188 104.967 66.5573 99.0238 66.672 91.6286V89.6221C56.0473 88.6475 47.8876 79.8191 47.7157 69.1562V61.1494C47.8494 53.735 53.9644 47.8112 61.3787 47.9258C68.6211 48.0405 74.4685 53.8879 74.6023 61.1494V80.5643C85.6474 77.1247 93.5204 66.863 93.5204 54.9007C93.5013 40.072 81.4052 28.0332 66.5 28.0332Z" fill="black"/>
<path d="M61.2259 55.8371H61.1303C58.1493 55.8371 55.7033 58.2066 55.6078 61.1876V68.8122C55.6078 75.1756 60.2131 80.6026 66.5 81.6154L66.672 81.6345V61.3596C66.672 58.3404 64.2451 55.8944 61.2259 55.8371Z" fill="black"/>
<path d="M66.5 0C29.7721 0 0 29.7721 0 66.5C0 103.228 29.7721 133 66.5 133C103.228 133 133 103.228 133 66.5C133 29.7721 103.228 0 66.5 0ZM75.1565 88.6284L74.6978 88.7431L74.5832 88.7622V91.3802C74.5832 102.979 65.3917 112.477 53.7924 112.859H53.4484H53.0853C41.3523 112.859 31.7977 103.457 31.6066 91.7432V91.3802V54.079C31.6066 53.1045 31.6639 52.149 31.7977 51.1744L31.8168 51.0024L31.8741 50.5629C33.9953 33.6131 48.2698 20.657 65.4681 20.1411L65.984 20.122H66.5191C85.8003 20.122 101.432 35.696 101.432 54.9198C101.412 71.0289 90.3674 84.7684 75.1565 88.6284Z" fill="black"/>
</svg>
