<?xml version="1.0" encoding="UTF-8"?>
<svg width="180px" height="58px" viewBox="0 0 180 58" version="1.1" xmlns="http://www.w3.org/2000/svg" xmlns:xlink="http://www.w3.org/1999/xlink">
    <title>Daily - W Dark logo</title>
    <g id="Daily---W-Dark-logo" stroke="none" stroke-width="1" fill="none" fill-rule="evenodd">
        <g id="Logo" transform="translate(16.000000, 16.000000)" fill="#151618">
            <g fill-rule="nonzero">
                <path d="M39.8158775,12.9909755 L34.6975003,7.86188232 L37.2553552,2.73457106 L45.5717179,11.0683452 C46.6313388,12.1301846 46.6313388,13.8517664 45.5717179,14.9136059 L35.3358527,25.1709013 C34.2762317,26.2327407 32.5582467,26.2327407 31.4986258,25.1709013 C30.4390048,24.1090619 30.4390048,22.38748 31.4986258,21.3256406 L39.8158775,12.9909755 Z" id="Combined-Shape" opacity="0.56"></path>
                <path d="M31.500533,0.800996807 C32.560154,-0.260842615 34.2785836,-0.260397129 35.3382045,0.801442293 L37.2572625,2.72451813 L14.8678078,25.1608484 C13.8081869,26.2226878 12.0897573,26.2222423 11.0301363,25.1604029 L9.11107833,23.237327 L31.500533,0.800996807 Z M21.9047984,7.85272036 L18.0666824,11.698872 L12.9483052,6.56977883 L6.55055609,12.9809226 L11.6689332,18.1100158 L9.11107833,23.237327 L0.794715716,14.9035529 C-0.264905239,13.8417135 -0.264905239,12.1201317 0.794715716,11.0582922 L11.0301363,0.801442293 C12.0897573,-0.260397129 13.8081869,-0.260842615 14.8678078,0.800996807 L21.9047984,7.85272036 Z" id="Main"></path>
            </g>
            <path d="M57.7610236,8.80870679 L57.7610236,17.5206146 L62.5463869,17.5206146 L63.5606527,20.4245837 L57.7610236,20.4245837 C56.1626689,20.4245837 54.8669464,19.1244324 54.8669464,17.5206145 L54.8669464,8.80870679 C54.8669464,7.20488885 56.1626689,5.90473752 57.7610236,5.90473752 L62.5463869,5.90473752 L62.5463869,8.80870679 L63.5606527,8.80870679 L63.5606527,3.00076825 C63.5606527,2.19885927 64.2093702,1.54878361 65.0096037,1.54878361 L66.4585548,1.54878361 L66.4585548,18.9725991 C66.4585548,19.7745081 65.8098373,20.4245837 65.0096037,20.4245837 L63.5606527,20.4245837 L63.5606527,8.80870679 L57.7610236,8.80870679 Z M72.2505478,20.4246099 C70.652194,20.4246099 69.3564569,19.1244506 69.3564569,17.5206336 L69.3564569,14.6166453 C69.3564569,13.0128274 70.6521794,11.7126761 72.250534,11.7126761 L77.0358974,11.7126761 L77.0358974,14.6166453 L78.0501632,14.6166453 L78.0501632,8.80870679 L70.0799762,8.80870679 L70.0799783,7.35672215 C70.0799783,6.55481403 70.7278383,5.90473752 71.5270148,5.90473752 L78.0501632,5.90473752 C79.6506303,5.90473752 80.9480783,7.20488885 80.9480783,8.80870679 L80.9480783,18.9726253 C80.9480783,19.7745343 80.2993608,20.4246099 79.4991272,20.4246099 L78.0501632,20.4246099 L78.0501632,14.6166453 L72.250534,14.6166453 L72.250534,17.5206146 L77.0358974,17.5206146 L78.0501632,20.4246099 C74.4776385,20.4246099 72.5444334,20.4246099 72.2505478,20.4246099 Z M83.8459674,20.4245839 L83.8459674,7.35672215 C83.8459674,6.55481318 84.4938286,5.90473752 85.293006,5.90473752 L86.7400445,5.90473752 L86.7400445,18.9725992 C86.7400445,19.7745082 86.0921833,20.4245839 85.293006,20.4245839 L83.8459674,20.4245839 Z M86.7400445,3.01025834 C86.7400445,3.41517112 86.601332,3.75681114 86.3239027,4.03518867 C86.0464735,4.3135662 85.7059972,4.45275288 85.3024637,4.45275288 C84.8989302,4.45275288 84.5553014,4.3135662 84.271567,4.03518867 C83.9878325,3.75681114 83.8459674,3.41517112 83.8459674,3.01025834 C83.8459674,2.59269205 83.9878325,2.24472535 84.271567,1.96634782 C84.5553014,1.68797029 84.8989302,1.54878361 85.3024637,1.54878361 C85.7059972,1.54878361 86.0464735,1.68797029 86.3239027,1.96634782 C86.601332,2.24472535 86.7400445,2.59269205 86.7400445,3.01025834 Z M89.6417716,20.4245839 L89.6417716,3.00076825 C89.6417716,2.19885928 90.2896328,1.54878361 91.0888101,1.54878361 L92.5358487,1.54878361 L92.5358487,18.9725992 C92.5358487,19.7745082 91.8879875,20.4245839 91.0888101,20.4245839 L89.6417716,20.4245839 Z M99.4074745,20.4304135 L95.500299,8.14231578 C95.2666421,7.37544641 95.7068391,6.56371223 96.4710962,6.32925674 L97.8475997,5.90473752 L101.035292,16.3407482 L103.904215,6.93258802 C104.137872,6.16571865 104.936657,5.73411194 105.700914,5.96856743 L107.029184,6.39308665 L102.107516,22.7250801 C101.735535,23.9459333 100.612307,24.7798391 99.3400192,24.7800109 L96.9475323,24.7805378 C96.1483549,24.7805378 95.5004065,24.1306575 95.500299,23.3287486 L95.5004937,21.8765685 L97.9055577,21.8765685 C98.7024671,21.8765685 99.404275,21.2300403 99.4074745,20.4304135 Z" id="daily"></path>
        </g>
        <path d="M127.750465,36.6135723 L127.750465,34.5618028 L125.645576,34.5618028 L125.645576,36.6135723 L127.750465,36.6135723 Z M134.045996,36.7478003 C135.066548,36.7478003 135.930828,36.492128 136.638836,35.9807836 C137.346844,35.4694392 137.841174,34.785516 138.121826,33.9290141 L138.121826,33.9290141 L138.121826,36.6135723 L139.863143,36.6135723 L139.863143,22.4237644 L138.121826,22.4237644 L138.121826,28.7708271 C137.841174,27.9143252 137.346844,27.230402 136.638836,26.7190576 C135.930828,26.2077132 135.066548,25.952041 134.045996,25.952041 C133.114742,25.952041 132.285543,26.1693624 131.5584,26.6040051 C130.831257,27.0386479 130.260385,27.6650448 129.845786,28.4831959 C129.431187,29.301347 129.223887,30.2601178 129.223887,31.3595083 C129.223887,32.4588988 129.431187,33.4144738 129.845786,34.226233 C130.260385,35.0379923 130.831257,35.6611933 131.5584,36.0958361 C132.285543,36.5304789 133.114742,36.7478003 134.045996,36.7478003 Z M134.543515,35.213767 C133.471935,35.213767 132.614034,34.8718054 131.96981,34.1878822 C131.325587,33.503959 131.003475,32.5611677 131.003475,31.3595083 C131.003475,30.1578489 131.325587,29.2150576 131.96981,28.5311344 C132.614034,27.8472113 133.471935,27.5052497 134.543515,27.5052497 C135.232388,27.5052497 135.847908,27.6618489 136.390077,27.9750474 C136.932245,28.2882458 137.356412,28.7388681 137.662578,29.3269142 C137.968743,29.9149603 138.121826,30.5924917 138.121826,31.3595083 C138.121826,32.126525 137.968743,32.8008604 137.662578,33.3825147 C137.356412,33.964169 136.932245,34.4147913 136.390077,34.7343816 C135.847908,35.0539718 135.232388,35.213767 134.543515,35.213767 Z M147.287661,36.7478003 C148.167887,36.7478003 148.958815,36.5880051 149.660444,36.2684149 C150.362074,35.9488246 150.932945,35.5013982 151.373059,34.9261357 C151.813172,34.3508732 152.097013,33.6989091 152.224582,32.9702433 L152.224582,32.9702433 L150.368453,32.9702433 C150.240884,33.6861255 149.893258,34.2581921 149.325576,34.686443 C148.757894,35.114694 148.053075,35.3288195 147.211119,35.3288195 C146.279865,35.3288195 145.492127,35.0284046 144.847903,34.4275749 C144.203679,33.8267452 143.862432,32.9255006 143.824162,31.7238412 L143.824162,31.7238412 L152.224582,31.7238412 C152.275609,31.4553854 152.301123,31.1357951 152.301123,30.7650704 C152.301123,29.8830013 152.100202,29.0776338 151.69836,28.348968 C151.296517,27.6203022 150.716078,27.0386479 149.957042,26.6040051 C149.198007,26.1693624 148.308213,25.952041 147.287661,25.952041 C146.279865,25.952041 145.386882,26.1693624 144.608711,26.6040051 C143.83054,27.0386479 143.221398,27.6650448 142.781285,28.4831959 C142.341172,29.301347 142.121115,30.2601178 142.121115,31.3595083 C142.121115,32.4588988 142.341172,33.4144738 142.781285,34.226233 C143.221398,35.0379923 143.83054,35.6611933 144.608711,36.0958361 C145.386882,36.5304789 146.279865,36.7478003 147.287661,36.7478003 Z M150.540671,30.8801229 L143.824162,30.8801229 C143.875189,29.729598 144.226004,28.8571165 144.876606,28.2626786 C145.527208,27.6682407 146.330893,27.3710218 147.287661,27.3710218 C147.887235,27.3710218 148.44216,27.4988579 148.952436,27.7545301 C149.462712,28.0102023 149.864555,28.4001024 150.157964,28.9242305 C150.451372,29.4483585 150.578941,30.1003227 150.540671,30.8801229 L150.540671,30.8801229 Z M159.668234,36.6135723 L163.782335,26.0862689 L161.907071,26.0862689 L158.654061,34.753557 L155.36278,26.0862689 L153.487515,26.0862689 L157.601616,36.6135723 L159.668234,36.6135723 Z" id=".dev" fill="#151618" fill-rule="nonzero" opacity="0.56"></path>
    </g>
</svg>