<svg width="532" height="205" viewBox="0 0 532 205" fill="none" xmlns="http://www.w3.org/2000/svg">
<rect width="532" height="205" fill="white"/>
<path d="M109.04 56L84.601 80.3134V69.9175L74.7263 69.9175L74.7263 93.6592H84.601L84.601 80.3134L91.5835 87.2601L116.022 62.9467L109.04 56Z" fill="#121212"/>
<path d="M101.882 77.2853H134.797V87.1094H101.882V77.2853Z" fill="#121212"/>
<path d="M63.2095 111.67H77.6175L59 93.1479L65.9825 86.2012L84.7513 104.874L77.9201 111.67H92.0109L92.0109 121.494H63.2095V111.67Z" fill="#121212"/>
<path d="M89.6562 138.299L109.291 118.765L109.291 133.774H119.166V104.302H109.291V118.469L102.458 111.67L82.6737 131.352L89.6562 138.299Z" fill="#121212"/>
<path d="M109.289 94.0567L131.401 116.055L138.383 109.108L116.272 87.11L109.289 94.0567Z" fill="#121212"/>
<path fill-rule="evenodd" clip-rule="evenodd" d="M175.722 128.408H190.131C198.284 128.532 204.411 128.08 208.767 126.215C213.186 124.288 216.298 121.086 218.102 116.61C219.969 112.134 220.903 105.668 220.903 97.2135C220.903 89.3802 220.125 82.8808 218.569 78.4668C217.013 74.0528 214.368 70.7889 210.634 68.6751C206.963 66.4992 201.735 65.0693 194.952 64.3855C191.84 64.0746 188.822 63.9192 185.897 63.9192C183.982 63.8785 181.833 63.8911 179.517 63.9046C178.295 63.9118 177.027 63.9192 175.722 63.9192V128.408ZM204.193 117.263C201.953 118.693 198.841 119.532 194.858 119.781C193.676 119.905 192.4 119.936 191.031 119.874C189.724 119.812 188.075 119.719 186.083 119.594V73.2473C188.697 73.2473 191.56 73.4028 194.672 73.7136C198.841 74.211 202.046 75.2057 204.287 76.6977C206.527 78.1898 208.114 80.49 209.047 83.5985C209.981 86.6448 210.448 90.9344 210.448 96.4675C210.448 102.311 209.95 106.881 208.954 110.176C208.021 113.409 206.434 115.771 204.193 117.263Z" fill="#121212"/>
<path fill-rule="evenodd" clip-rule="evenodd" d="M229.841 127.614C232.206 128.484 235.535 128.92 239.829 128.92C243.626 128.92 246.519 128.453 248.511 127.521C250.502 126.526 252.338 124.723 254.019 122.112H254.765V128.456H263.914V95.4417C263.914 90.9033 263.322 87.4219 262.14 84.9973C260.958 82.5105 258.935 80.7698 256.072 79.7751C253.272 78.7182 249.289 78.1898 244.123 78.1898C239.02 78.1898 235.069 78.656 232.268 79.5886C229.53 80.4589 227.601 81.9821 226.48 84.158C225.36 86.2717 224.609 89.3251 224.609 93.2968H234.975C234.975 90.6857 235.598 88.9139 236.842 87.9814C238.149 87.0489 240.576 86.5826 244.123 86.5826C246.8 86.5826 248.884 86.8624 250.378 87.4219C251.872 87.9814 252.929 88.8828 253.552 90.1262C254.174 91.3696 254.485 93.1414 254.485 95.4417V96.7472H246.551C240.514 96.7472 235.846 97.2757 232.548 98.3325C229.25 99.3272 226.916 101.099 225.547 103.648C224.178 106.135 223.493 109.647 223.493 114.186C223.493 118.04 223.96 121.024 224.893 123.138C225.889 125.252 227.538 126.744 229.841 127.614ZM249.351 118.942C247.609 119.874 245.088 120.34 241.79 120.34C238.554 120.34 236.344 119.843 235.162 118.848C233.98 117.854 233.388 116.02 233.388 113.346C233.388 111.17 233.731 109.523 234.415 108.404C235.1 107.223 236.22 106.383 237.776 105.886C239.394 105.389 241.665 105.109 244.59 105.047L254.392 104.954C254.267 108.995 253.832 112.103 253.085 114.279C252.338 116.455 251.094 118.009 249.351 118.942Z" fill="#121212"/>
<path fill-rule="evenodd" clip-rule="evenodd" d="M361.325 128.92C355.475 128.92 350.963 128.174 347.789 126.682C344.615 125.19 342.375 122.641 341.068 119.035C339.761 115.429 339.108 110.3 339.108 103.648C339.108 96.9337 339.761 91.7737 341.068 88.1679C342.375 84.5621 344.615 82.0132 347.789 80.5211C350.963 78.9669 355.475 78.1898 361.325 78.1898C367.175 78.1898 371.655 78.9669 374.767 80.5211C377.941 82.0132 380.181 84.5621 381.488 88.1679C382.857 91.7737 383.542 96.9337 383.542 103.648C383.542 110.3 382.857 115.429 381.488 119.035C380.181 122.578 377.941 125.127 374.767 126.682C371.593 128.174 367.112 128.92 361.325 128.92ZM361.325 120.34C364.561 120.34 367.019 119.843 368.699 118.848C370.442 117.854 371.687 116.175 372.433 113.813C373.18 111.45 373.554 108.062 373.554 103.648C373.554 99.1718 373.18 95.7525 372.433 93.3901C371.687 90.9655 370.442 89.2559 368.699 88.2612C367.019 87.2043 364.561 86.6758 361.325 86.6758C358.089 86.6758 355.599 87.2043 353.857 88.2612C352.114 89.2559 350.87 90.9655 350.123 93.3901C349.376 95.7525 349.003 99.1718 349.003 103.648C349.003 108.062 349.376 111.45 350.123 113.813C350.87 116.175 352.114 117.854 353.857 118.848C355.599 119.843 358.089 120.34 361.325 120.34Z" fill="#121212"/>
<path d="M386.968 78.6505H396.957V86.3028H397.703C399.259 83.1322 401.002 80.9874 402.931 79.8683C404.922 78.7493 407.785 78.1898 411.519 78.1898C416 78.1898 419.454 78.7804 421.881 79.9616C424.308 81.0806 426.05 82.9768 427.108 85.6501C428.166 88.3233 428.695 92.1467 428.695 97.1202V128.456H418.707V96.9337C418.707 94.3848 418.427 92.3954 417.867 90.9655C417.307 89.5356 416.342 88.5409 414.973 87.9814C413.604 87.4219 411.644 87.1421 409.092 87.1421C405.918 87.1421 403.46 87.6084 401.717 88.5409C400.037 89.4734 398.824 91.0588 398.077 93.2968C397.33 95.5349 396.957 98.7055 396.957 102.809V128.456H386.968V78.6505Z" fill="#121212"/>
<path fill-rule="evenodd" clip-rule="evenodd" d="M448.916 128.92C444.622 128.92 441.292 128.484 438.927 127.614C436.625 126.744 434.976 125.252 433.98 123.138C433.046 121.024 432.58 118.04 432.58 114.186C432.58 109.647 433.264 106.135 434.633 103.648C436.002 101.099 438.336 99.3272 441.635 98.3325C444.933 97.2757 449.6 96.7472 455.637 96.7472H463.572V95.4417C463.572 93.1414 463.261 91.3696 462.638 90.1262C462.016 88.8828 460.958 87.9814 459.464 87.4219C457.971 86.8624 455.886 86.5826 453.21 86.5826C449.663 86.5826 447.235 87.0489 445.929 87.9814C444.684 88.9139 444.062 90.6857 444.062 93.2968H433.904C433.904 88.9493 434.447 86.2717 435.567 84.158C436.687 81.9821 438.616 80.4589 441.354 79.5886C444.155 78.656 448.107 78.1898 453.21 78.1898C458.375 78.1898 462.358 78.7182 465.159 79.7751C468.021 80.7698 470.044 82.5105 471.226 84.9973C472.409 87.4219 473 90.9033 473 95.4417V128.456H463.852V122.112H463.105C461.425 124.723 459.589 126.526 457.597 127.521C455.606 128.453 452.712 128.92 448.916 128.92ZM450.876 120.34C454.175 120.34 456.695 119.874 458.437 118.942C460.18 118.009 461.425 116.455 462.171 114.279C462.918 112.103 463.354 108.995 463.478 104.954L453.677 105.047C450.752 105.109 448.48 105.389 446.862 105.886C445.306 106.383 444.186 107.223 443.501 108.404C442.817 109.523 442.475 111.17 442.475 113.346C442.475 116.02 443.066 117.854 444.248 118.848C445.431 119.843 447.64 120.34 450.876 120.34Z" fill="#121212"/>
<path d="M307.382 78.5478H297.767L288.324 119.51H284.887L275.822 78.5478H266.378L274.402 119.166C275.446 124.453 280.105 128.265 285.521 128.265H287.343L285.302 134.641C285.201 134.901 285.107 135.162 285.013 135.422C284.194 137.685 283.427 139.803 278.986 139.803H272.8V147.882L284.264 148C287.721 147.941 292.064 145.44 295.295 134.641L307.382 78.5478Z" fill="#121212"/>
<path d="M331.209 128.581C326.935 128.581 323.699 128.018 321.499 126.893C319.363 125.767 317.917 124.079 317.163 121.829C316.409 119.515 316.032 116.358 316.032 112.357V86.8487H310.196L311.896 78.5961H316.409V68.0927L325.553 68.0927V78.5961H336.947V86.8487H325.553V111.982C325.553 114.045 325.741 115.639 326.118 116.765C326.558 117.827 327.407 118.64 328.663 119.203C329.92 119.766 331.806 120.047 334.319 120.047H336.947V128.581H331.209Z" fill="#121212"/>
</svg>
